<svg width="17" height="17" fill="none" xmlns="http://www.w3.org/2000/svg"><path d="M2.725 17h11.863a2.256 2.256 0 002.254-2.254V3.513a2.256 2.256 0 00-2.254-2.254h-.894V.63a.632.632 0 00-.63-.629.631.631 0 00-.63.63v.63H4.88V.63A.631.631 0 004.25 0a.631.631 0 00-.63.63v.63h-.894A2.256 2.256 0 00.471 3.512v11.233A2.256 2.256 0 002.725 17zM1.731 3.513c0-.547.447-.994.994-.994h.894v.63c0 .345.284.629.63.629.346 0 .63-.284.63-.63v-.63h7.555v.63c0 .346.284.63.63.63.346 0 .63-.284.63-.63v-.63h.894c.547 0 .994.448.994.995v1.839H1.731V3.513zm0 3.098h13.851v8.135a.997.997 0 01-.994.995H2.725a.997.997 0 01-.994-.995V6.61z" fill="#EA5D26"/></svg>