<svg width="37" height="36" viewBox="0 0 37 36" fill="none" xmlns="http://www.w3.org/2000/svg"><path d="M32.82 7.569a4.43 4.43 0 001.287-3.125A4.449 4.449 0 0029.664 0a4.449 4.449 0 00-4.444 4.444 4.43 4.43 0 001.284 3.121 6.773 6.773 0 00-2.489 2.302 6.766 6.766 0 00-2.49-2.302 4.428 4.428 0 001.285-3.121A4.449 4.449 0 0018.367 0a4.449 4.449 0 00-4.444 4.444c0 1.215.49 2.318 1.285 3.121a6.769 6.769 0 00-2.492 2.306 6.75 6.75 0 00-2.49-2.302 4.429 4.429 0 001.288-3.125A4.449 4.449 0 007.07 0a4.449 4.449 0 00-4.444 4.444 4.43 4.43 0 001.285 3.121C2.332 8.41.367 10.382.367 13.481v12.427c0 .582.472 1.054 1.054 1.054h11.604a7.811 7.811 0 00-2.491 5.723v2.26c0 .583.472 1.055 1.055 1.055h13.556c.582 0 1.054-.472 1.054-1.055v-2.259c0-3.625-2.405-5.648-2.486-5.723h11.599c.583 0 1.055-.473 1.055-1.055V13.481a6.709 6.709 0 00-3.548-5.912zm-3.156-5.46a2.337 2.337 0 012.334 2.335 2.337 2.337 0 01-2.334 2.334 2.337 2.337 0 01-2.335-2.334 2.337 2.337 0 012.335-2.335zm0 6.778a4.602 4.602 0 014.471 3.54h-8.944c.256-1.097 1.483-3.54 4.473-3.54zM18.367 2.11A2.337 2.337 0 0120.7 4.444a2.337 2.337 0 01-2.334 2.334 2.337 2.337 0 01-2.335-2.334 2.337 2.337 0 012.335-2.335zm0 6.778c2.988 0 4.216 2.442 4.473 3.54h-8.946c.256-1.097 1.483-3.54 4.474-3.54zM7.07 2.11a2.337 2.337 0 012.334 2.335A2.337 2.337 0 017.07 6.778a2.337 2.337 0 01-2.335-2.334A2.337 2.337 0 017.07 2.109zm0 6.778a4.602 4.602 0 014.471 3.54H2.597c.256-1.097 1.484-3.54 4.473-3.54zm11.297 15.966a3.468 3.468 0 01-3.464-3.464 3.468 3.468 0 013.464-3.464 3.468 3.468 0 013.464 3.464 3.468 3.468 0 01-3.464 3.464zm4.047 3.786a5.684 5.684 0 011.676 4.047v1.205H12.643v-1.206a5.729 5.729 0 015.724-5.722c1.529 0 2.966.595 4.047 1.676zm11.843-3.786H22.728a5.545 5.545 0 001.212-3.464 5.58 5.58 0 00-5.573-5.573 5.58 5.58 0 00-5.574 5.573c0 1.309.455 2.512 1.212 3.464H2.476V14.536h31.781v10.317z" fill="#E27C1D"/></svg>