<svg width="37" height="37" viewBox="0 0 37 37" fill="none" xmlns="http://www.w3.org/2000/svg"><g clip-path="url(#clip0_6_217)" fill="#E27C1D"><path d="M24.684 13.499a.382.382 0 100 .763h1.998a.566.566 0 110 1.133h-1.766a.614.614 0 00-.614.613.614.614 0 01-.613.614h-.996a.614.614 0 01-.614-.614.614.614 0 00-.614-.613h-.143a.566.566 0 010-1.133h.095a.662.662 0 00.662-.661v-3.527a3 3 0 013-3h1.133c1.3 0 2.314.273 3.042.819.736.545 1.104 1.345 1.104 2.4 0 1.046-.368 1.842-1.104 2.387-.728.546-1.742.819-3.042.819h-1.528zm3.437-3.192c0-.464-.168-.819-.504-1.064-.328-.246-.8-.368-1.419-.368h-.45a1.446 1.446 0 100 2.891h.45c.619 0 1.091-.122 1.419-.368.336-.255.504-.618.504-1.091zM10.487 27.416a5.565 5.565 0 002.156-4.397 5.58 5.58 0 00-5.573-5.574 5.58 5.58 0 00-5.574 5.574c0 1.786.846 3.377 2.156 4.398-1.85 1.1-3.285 3.178-3.285 5.769v2.26c0 .582.472 1.054 1.054 1.054h11.297c.583 0 1.055-.472 1.055-1.055v-2.259c0-2.59-1.436-4.669-3.286-5.77zM3.606 23.02a3.468 3.468 0 013.464-3.464 3.468 3.468 0 013.464 3.464 3.468 3.468 0 01-3.464 3.464 3.468 3.468 0 01-3.464-3.464zm8.058 11.372H2.476v-1.205a4.591 4.591 0 014.594-4.594 4.591 4.591 0 014.593 4.594v1.205z"/><path d="M31.923.5H18.367a4.441 4.441 0 00-4.444 4.444v20.334c0 .863.99 1.367 1.687.844l4.238-3.178h12.075a4.441 4.441 0 004.444-4.444V4.944A4.441 4.441 0 0031.923.5zm2.334 18a2.333 2.333 0 01-2.334 2.334H19.496c-.228 0-.45.075-.633.211l-2.83 2.124V4.944a2.333 2.333 0 012.333-2.335h13.557a2.333 2.333 0 012.334 2.335V18.5z"/></g><defs><clipPath id="clip0_6_217"><path fill="#fff" transform="translate(.367 .5)" d="M0 0h36v36H0z"/></clipPath></defs></svg>