<svg width="37" height="36" viewBox="0 0 37 36" fill="none" xmlns="http://www.w3.org/2000/svg">
<g clip-path="url(#clip0_6_204)">
<path d="M32.9199 4.50934H29.4559V3.30469C29.4559 2.72214 28.9835 2.25 28.4012 2.25C27.8186 2.25 27.3465 2.72214 27.3465 3.30469V4.50934H22.6776V3.30469C22.6776 2.72214 22.2054 2.25 21.6229 2.25C21.0403 2.25 20.5682 2.72214 20.5682 3.30469V4.50934H15.8996V3.30469C15.8996 2.72214 15.4274 2.25 14.8449 2.25C14.2623 2.25 13.7902 2.72214 13.7902 3.30469V4.50934H9.12128V3.30469C9.12128 2.72214 8.64914 2.25 8.06659 2.25C7.48431 2.25 7.0119 2.72214 7.0119 3.30469V4.50934H3.54791C1.72583 4.50934 0.233887 5.9826 0.233887 7.82336V30.417C0.233887 32.2699 1.73901 33.731 3.54791 33.731H32.9199C34.7419 33.731 36.2339 32.2581 36.2339 30.417V7.82336C36.2339 6.00128 34.7606 4.50934 32.9199 4.50934V4.50934ZM34.1245 30.417C34.1245 31.0806 33.5873 31.6217 32.9199 31.6217H3.54791C2.88461 31.6217 2.34326 31.0847 2.34326 30.417V7.82336C2.34326 7.15979 2.88049 6.61871 3.54791 6.61871H7.0119V7.82336C7.0119 8.40591 7.48431 8.87805 8.06659 8.87805C8.64914 8.87805 9.12128 8.40591 9.12128 7.82336V6.61871H13.7902V7.82336C13.7902 8.40591 14.2623 8.87805 14.8449 8.87805C15.4274 8.87805 15.8996 8.40591 15.8996 7.82336V6.61871H20.5682V7.82336C20.5682 8.40591 21.0403 8.87805 21.6229 8.87805C22.2054 8.87805 22.6776 8.40591 22.6776 7.82336V6.61871H27.3465V7.82336C27.3465 8.40591 27.8186 8.87805 28.4012 8.87805C28.9835 8.87805 29.4559 8.40591 29.4559 7.82336V6.61871H32.9199C33.5834 6.61871 34.1245 7.15594 34.1245 7.82336V30.417Z" fill="#E27C1D"/>
<path d="M9.19662 25.9733H6.93701C6.35474 25.9733 5.88232 26.4455 5.88232 27.028C5.88232 27.6106 6.35474 28.0827 6.93701 28.0827H9.19662C9.7789 28.0827 10.2513 27.6106 10.2513 27.028C10.2513 26.4455 9.7789 25.9733 9.19662 25.9733Z" fill="#E27C1D"/>
<path d="M15.9747 25.9733H13.7153C13.1328 25.9733 12.6606 26.4455 12.6606 27.028C12.6606 27.6106 13.1328 28.0827 13.7153 28.0827H15.9747C16.5569 28.0827 17.0294 27.6106 17.0294 27.028C17.0294 26.4455 16.5569 25.9733 15.9747 25.9733Z" fill="#E27C1D"/>
<path d="M9.19662 19.1953H6.93701C6.35474 19.1953 5.88232 19.6674 5.88232 20.25C5.88232 20.8326 6.35474 21.3047 6.93701 21.3047H9.19662C9.7789 21.3047 10.2513 20.8326 10.2513 20.25C10.2513 19.6674 9.7789 19.1953 9.19662 19.1953Z" fill="#E27C1D"/>
<path d="M15.9747 19.1953H13.7153C13.1328 19.1953 12.6606 19.6674 12.6606 20.25C12.6606 20.8326 13.1328 21.3047 13.7153 21.3047H15.9747C16.5569 21.3047 17.0294 20.8326 17.0294 20.25C17.0294 19.6674 16.5569 19.1953 15.9747 19.1953Z" fill="#E27C1D"/>
<path d="M20.4932 21.3047H22.7525C23.3351 21.3047 23.8072 20.8326 23.8072 20.25C23.8072 19.6674 23.3351 19.1953 22.7525 19.1953H20.4932C19.9109 19.1953 19.4385 19.6674 19.4385 20.25C19.4385 20.8326 19.9109 21.3047 20.4932 21.3047Z" fill="#E27C1D"/>
<path d="M29.5311 19.1953H27.2715C26.6892 19.1953 26.2168 19.6674 26.2168 20.25C26.2168 20.8326 26.6892 21.3047 27.2715 21.3047H29.5311C30.1134 21.3047 30.5858 20.8326 30.5858 20.25C30.5858 19.6674 30.1134 19.1953 29.5311 19.1953Z" fill="#E27C1D"/>
<path d="M9.19662 12.417H6.93701C6.35474 12.417 5.88232 12.8894 5.88232 13.4717C5.88232 14.0542 6.35474 14.5264 6.93701 14.5264H9.19662C9.7789 14.5264 10.2513 14.0542 10.2513 13.4717C10.2513 12.8894 9.7789 12.417 9.19662 12.417Z" fill="#E27C1D"/>
<path d="M15.9747 12.417H13.7153C13.1328 12.417 12.6606 12.8894 12.6606 13.4717C12.6606 14.0542 13.1328 14.5264 13.7153 14.5264H15.9747C16.5569 14.5264 17.0294 14.0542 17.0294 13.4717C17.0294 12.8894 16.5569 12.417 15.9747 12.417Z" fill="#E27C1D"/>
<path d="M20.4932 14.5264H22.7525C23.3351 14.5264 23.8072 14.0542 23.8072 13.4717C23.8072 12.8894 23.3351 12.417 22.7525 12.417H20.4932C19.9109 12.417 19.4385 12.8894 19.4385 13.4717C19.4385 14.0542 19.9109 14.5264 20.4932 14.5264Z" fill="#E27C1D"/>
<path d="M29.5311 12.417H27.2715C26.6892 12.417 26.2168 12.8894 26.2168 13.4717C26.2168 14.0542 26.6892 14.5264 27.2715 14.5264H29.5311C30.1134 14.5264 30.5858 14.0542 30.5858 13.4717C30.5858 12.8894 30.1134 12.417 29.5311 12.417Z" fill="#E27C1D"/>
<path d="M24.6279 24.023C24.2162 23.6112 23.5485 23.6112 23.1365 24.023L22.1878 24.9716L21.2389 24.023C20.8271 23.6112 20.1595 23.6112 19.7475 24.023C19.3355 24.4347 19.3355 25.1026 19.7475 25.5144L20.6961 26.4633L19.7475 27.412C19.3355 27.8237 19.3355 28.4916 19.7475 28.9034C19.9535 29.1094 20.2234 29.2123 20.4932 29.2123C20.7632 29.2123 21.0331 29.1094 21.2389 28.9034L22.1875 27.9547L23.1365 28.9034C23.3422 29.1094 23.6122 29.2123 23.8822 29.2123C24.1519 29.2123 24.4219 29.1094 24.6279 28.9034C25.0399 28.4916 25.0399 27.824 24.6279 27.412L23.6792 26.4633L24.6279 25.5144C25.0399 25.1026 25.0399 24.4347 24.6279 24.023Z" fill="#E27C1D"/>
</g>
<defs>
<clipPath id="clip0_6_204">
<rect width="36" height="36" fill="white" transform="translate(0.233887)"/>
</clipPath>
</defs>
</svg>
