<svg width="33" height="37" viewBox="0 0 33 37" fill="none" xmlns="http://www.w3.org/2000/svg">
<path d="M29.5399 13.4026C29.7995 12.337 29.514 11.1644 28.6834 10.3338L19.8004 1.45077C19.1873 0.837711 18.3721 0.5 17.505 0.5C16.638 0.5 15.8228 0.837711 15.2096 1.45077L3.3783 13.2823C1.65487 13.6266 0.352051 15.1509 0.352051 16.9741V32.7349C0.352051 34.811 2.04103 36.5 4.11714 36.5H28.3506C30.4267 36.5 32.1157 34.811 32.1157 32.7349V16.9741C32.1157 15.3136 31.0347 13.9016 29.5399 13.4026ZM16.7012 2.9423C16.9159 2.72764 17.2015 2.60938 17.505 2.60938C17.8086 2.60938 18.0941 2.72764 18.3088 2.9423L27.1918 11.8253C27.5665 12.2 27.6232 12.7728 27.3643 13.209H22.5451C22.4482 13.0464 22.3954 12.8607 22.3954 12.6664C22.3954 12.3823 22.506 12.1152 22.7069 11.9144C22.9046 11.7167 23.0158 11.4484 23.0158 11.1687C23.0158 10.889 22.9047 10.6206 22.7069 10.4229L19.7113 7.4274C19.2994 7.01558 18.6316 7.01558 18.2197 7.4274C18.0189 7.62821 17.7518 7.73888 17.4677 7.73888C17.1837 7.73888 16.9166 7.62828 16.7157 7.4274C16.3039 7.01558 15.6361 7.01558 15.2242 7.4274L9.44254 13.2091H6.43457L16.7012 2.9423ZM20.3342 13.209H12.4256L16.0973 9.53727C16.961 9.94979 17.9743 9.94979 18.8381 9.53727L20.5968 11.2961C20.3107 11.8951 20.2235 12.5659 20.3342 13.209ZM28.3506 34.3906H4.11714C3.20421 34.3906 2.46143 33.6479 2.46143 32.7349V16.9741C2.46143 16.0611 3.20414 15.3184 4.11714 15.3184H28.3506C29.2636 15.3184 30.0063 16.0611 30.0063 16.9741V19.5635H26.794C23.8934 19.5635 21.5337 21.9233 21.5337 24.8238C21.5337 27.7242 23.8935 30.0841 26.794 30.0841H30.0063V32.7348C30.0063 33.6479 29.2636 34.3906 28.3506 34.3906ZM30.0063 21.6729V27.9748H26.794C25.0566 27.9748 23.6431 26.5612 23.6431 24.8238C23.6431 23.0865 25.0566 21.6729 26.794 21.6729H30.0063V21.6729Z" fill="#E27C1D"/>
</svg>
