<svg width="37" height="36" viewBox="0 0 37 36" fill="none" xmlns="http://www.w3.org/2000/svg">
<path d="M32.8192 7.56903C33.6149 6.76566 34.1074 5.66125 34.1074 4.4437C34.1074 1.99347 32.1139 0 29.6637 0C27.2134 0 25.22 1.99347 25.22 4.4437C25.22 5.65933 25.7108 6.76208 26.5043 7.56519C25.9047 7.88626 24.844 8.57703 24.0153 9.86737C23.7566 9.465 23.4534 9.08734 23.107 8.741C22.633 8.26694 22.1007 7.8728 21.5258 7.56519C22.3196 6.76208 22.8104 5.65933 22.8104 4.4437C22.8104 1.99347 20.8169 0 18.3667 0C15.9165 0 13.923 1.99347 13.923 4.4437C13.923 5.65933 14.4138 6.76208 15.2076 7.56519C14.6327 7.8728 14.1004 8.26694 13.6266 8.741C13.2792 9.08844 12.9749 9.46747 12.7156 9.87149C12.0974 8.90771 11.2388 8.11203 10.2253 7.56903C11.0212 6.76566 11.5137 5.66125 11.5137 4.4437C11.5137 1.99347 9.52023 0 7.07001 0C4.61951 0 2.62604 1.99347 2.62604 4.4437C2.62604 5.65933 3.11713 6.76208 3.91061 7.56519C2.33215 8.41031 0.366699 10.3824 0.366699 13.4813V25.9077C0.366699 26.4902 0.838837 26.9624 1.42139 26.9624H13.0246C11.4931 28.3928 10.534 30.4288 10.534 32.6849V34.9453C10.534 35.5279 11.0061 36 11.5887 36H25.1447C25.7273 36 26.1994 35.5279 26.1994 34.9453V32.686C26.1994 29.061 23.7942 27.0382 23.7135 26.9626H35.312C35.8946 26.9626 36.3667 26.4902 36.3667 25.908V13.4813C36.3667 10.9254 34.9286 8.69952 32.8192 7.56903ZM29.6637 2.10938C30.9507 2.10938 31.998 3.15665 31.998 4.4437C31.998 5.73102 30.9507 6.77802 29.6637 6.77802C28.3763 6.77802 27.3293 5.73102 27.3293 4.4437C27.3293 3.15665 28.3763 2.10938 29.6637 2.10938ZM29.6637 8.88739C31.8337 8.88739 33.6572 10.4002 34.1351 12.4266H25.1906C25.4466 11.3299 26.6743 8.88739 29.6637 8.88739ZM18.3667 2.10938C19.654 2.10938 20.701 3.15665 20.701 4.4437C20.701 5.73102 19.654 6.77802 18.3667 6.77802C17.0794 6.77802 16.0324 5.73102 16.0324 4.4437C16.0324 3.15665 17.0794 2.10938 18.3667 2.10938ZM18.3678 8.88739C21.3547 8.88739 22.5835 11.3288 22.8398 12.4266H13.8936C14.1499 11.3299 15.3773 8.88739 18.3678 8.88739ZM7.06973 2.10938C8.35706 2.10938 9.40405 3.15665 9.40405 4.4437C9.40405 5.73102 8.35706 6.77802 7.06973 6.77802C5.78268 6.77802 4.73541 5.73102 4.73541 4.4437C4.73541 3.15665 5.78268 2.10938 7.06973 2.10938ZM7.06973 8.88739C9.23981 8.88739 11.0635 10.4002 11.5414 12.4266H2.59665C2.85291 11.3299 4.08063 8.88739 7.06973 8.88739ZM18.3667 24.8533C16.4567 24.8533 14.9027 23.2993 14.9027 21.389C14.9027 19.479 16.4567 17.925 18.3667 17.925C20.2767 17.925 21.8307 19.479 21.8307 21.389C21.8307 23.2993 20.2767 24.8533 18.3667 24.8533ZM22.4138 28.6392C23.4948 29.7199 24.09 31.157 24.09 32.686V33.8906H12.6434V32.6849C12.6434 29.5296 15.2103 26.9626 18.3667 26.9626C19.8957 26.9626 21.333 27.5578 22.4138 28.6392ZM34.2573 24.8533H22.728C23.4858 23.9013 23.9401 22.6975 23.9401 21.389C23.9401 18.3159 21.4398 15.8156 18.3667 15.8156C15.2933 15.8156 12.7931 18.3159 12.7931 21.389C12.7931 22.6975 13.2476 23.9013 14.0051 24.8533H2.47607V14.536H34.2573V24.8533Z" fill="#E27C1D"/>
</svg>
