<svg width="37" height="37" viewBox="0 0 37 37" fill="none" xmlns="http://www.w3.org/2000/svg">
<g clip-path="url(#clip0_6_217)">
<path d="M24.6842 13.4986C24.4732 13.4986 24.3022 13.6696 24.3022 13.8806C24.3022 14.0915 24.4732 14.2625 24.6842 14.2625H26.6824C26.995 14.2625 27.2485 14.5159 27.2485 14.8285C27.2485 15.1412 26.995 15.3946 26.6824 15.3946H24.916C24.5771 15.3946 24.3022 15.6694 24.3022 16.0084C24.3022 16.3474 24.0274 16.6222 23.6885 16.6222H22.6927C22.3537 16.6222 22.0789 16.3474 22.0789 16.0084C22.0789 15.6694 21.8041 15.3946 21.4651 15.3946H21.3219C21.0093 15.3946 20.7559 15.1412 20.7559 14.8285C20.7559 14.5159 21.0093 14.2625 21.3219 14.2625H21.4174C21.7828 14.2625 22.0789 13.9663 22.0789 13.6009V10.0742C22.0789 8.41736 23.4221 7.07422 25.0789 7.07422H26.2118C27.5122 7.07422 28.5261 7.34702 29.2536 7.89262C29.9901 8.43821 30.3584 9.23843 30.3584 10.2932C30.3584 11.339 29.9901 12.1346 29.2536 12.6802C28.5261 13.2258 27.5122 13.4986 26.2118 13.4986H24.6842ZM28.1214 10.3069C28.1214 9.84313 27.9532 9.48849 27.6168 9.24297C27.2894 8.99745 26.8165 8.87469 26.1982 8.87469H25.7481C24.9496 8.87469 24.3022 9.52202 24.3022 10.3205C24.3022 11.119 24.9496 11.7664 25.7481 11.7664H26.1982C26.8165 11.7664 27.2894 11.6436 27.6168 11.3981C27.9532 11.1435 28.1214 10.7797 28.1214 10.3069Z" fill="#E27C1D"/>
<path d="M10.4873 27.4165C11.798 26.3959 12.6434 24.8045 12.6434 23.0187C12.6434 19.9455 10.1429 17.4453 7.06973 17.4453C3.99658 17.4453 1.49637 19.9455 1.49637 23.0187C1.49637 24.8045 2.34177 26.3959 3.65216 27.4165C1.80261 28.5168 0.366699 30.5948 0.366699 33.186V35.4453C0.366699 36.0279 0.838837 36.5 1.42139 36.5H12.7184C13.3006 36.5 13.773 36.0279 13.773 35.4453V33.186C13.773 30.5954 12.3374 28.5171 10.4873 27.4165ZM3.60574 23.0187C3.60574 21.1087 5.15976 19.5547 7.07001 19.5547C8.97998 19.5547 10.534 21.1087 10.534 23.0187C10.534 24.9289 8.97998 26.4829 7.07001 26.4829C5.15976 26.4829 3.60574 24.9289 3.60574 23.0187ZM11.6637 34.3906H2.47607V33.186C2.47607 30.6487 4.52887 28.5923 7.06973 28.5923C9.60703 28.5923 11.6634 30.6451 11.6634 33.186V34.3906H11.6637Z" fill="#E27C1D"/>
<path d="M31.9229 0.5H18.3665C15.9122 0.5 13.9229 2.48578 13.9229 4.9437V25.278C13.9229 26.1407 14.9122 26.6453 15.6104 26.1218L19.8478 22.9437H31.9229C34.3772 22.9437 36.3665 20.9579 36.3665 18.5V4.9437C36.3665 2.48935 34.3808 0.5 31.9229 0.5V0.5ZM34.2572 18.5C34.2572 19.7903 33.2137 20.8343 31.9229 20.8343H19.4962C19.268 20.8343 19.0461 20.9085 18.8634 21.0453L16.0322 23.1686V4.9437C16.0322 3.65335 17.0757 2.60938 18.3665 2.60938H31.9229C33.2132 2.60938 34.2572 3.6528 34.2572 4.9437V18.5Z" fill="#E27C1D"/>
</g>
<defs>
<clipPath id="clip0_6_217">
<rect width="36" height="36" fill="white" transform="translate(0.366699 0.5)"/>
</clipPath>
</defs>
</svg>
