<?xml version="1.0" encoding="utf-8"?><svg width="33" height="37" fill="none" xmlns="http://www.w3.org/2000/svg" viewBox="0 0 33 37"><path d="M29.54 13.403a3.248 3.248 0 00-.857-3.07L19.8 1.452A3.225 3.225 0 0017.505.5c-.867 0-1.682.338-2.295.95L3.378 13.283a3.771 3.771 0 00-3.026 3.692v15.76A3.77 3.77 0 004.117 36.5h24.234a3.77 3.77 0 003.765-3.765v-15.76a3.77 3.77 0 00-2.576-3.572zM16.7 2.943c.215-.215.5-.334.804-.334.304 0 .59.119.804.333l8.883 8.883c.375.375.431.948.172 1.384h-4.819a1.056 1.056 0 01.162-1.295 1.055 1.055 0 000-1.491L19.71 7.427a1.055 1.055 0 00-1.491 0c-.201.201-.468.312-.752.312s-.551-.11-.752-.312a1.055 1.055 0 00-1.492 0L9.443 13.21H6.435L16.7 2.942zm3.633 10.266h-7.908l3.671-3.672a3.19 3.19 0 002.741 0l1.759 1.76a3.188 3.188 0 00-.263 1.912zm8.017 21.182H4.117a1.658 1.658 0 01-1.656-1.656v-15.76c0-.914.743-1.657 1.656-1.657h24.234c.913 0 1.655.743 1.655 1.656v2.59h-3.212c-2.9 0-5.26 2.36-5.26 5.26s2.36 5.26 5.26 5.26h3.212v2.65c0 .914-.742 1.657-1.655 1.657zm1.655-12.718v6.302h-3.212a3.155 3.155 0 01-3.15-3.151 3.155 3.155 0 013.15-3.151h3.212z" fill="#E27C1D"/></svg>