<?xml version="1.0" encoding="utf-8"?><svg width="37" height="36" fill="none" xmlns="http://www.w3.org/2000/svg" viewBox="0 0 37 36"><g clip-path="url(#aclip0_6_204)" fill="#E27C1D"><path d="M32.92 4.51h-3.464V3.304a1.055 1.055 0 00-2.11 0v1.204h-4.668V3.305a1.055 1.055 0 10-2.11 0v1.204H15.9V3.305a1.055 1.055 0 10-2.11 0v1.204H9.121V3.305a1.055 1.055 0 10-2.11 0v1.204H3.549A3.313 3.313 0 00.234 7.823v22.594a3.313 3.313 0 003.314 3.314H32.92a3.312 3.312 0 003.314-3.314V7.823A3.313 3.313 0 0032.92 4.51zm1.204 25.907c0 .664-.537 1.205-1.204 1.205H3.548a1.204 1.204 0 01-1.205-1.205V7.823c0-.663.537-1.204 1.205-1.204h3.464v1.204a1.055 1.055 0 002.11 0V6.62h4.668v1.204a1.055 1.055 0 102.11 0V6.62h4.668v1.204a1.055 1.055 0 102.11 0V6.62h4.668v1.204a1.055 1.055 0 102.11 0V6.62h3.464c.663 0 1.204.537 1.204 1.204v22.594z"/><path d="M9.197 25.973h-2.26a1.055 1.055 0 000 2.11h2.26a1.055 1.055 0 000-2.11zM15.975 25.973h-2.26a1.055 1.055 0 100 2.11h2.26a1.055 1.055 0 000-2.11zM9.197 19.195h-2.26a1.055 1.055 0 000 2.11h2.26a1.055 1.055 0 000-2.11zM15.975 19.195h-2.26a1.055 1.055 0 100 2.11h2.26a1.055 1.055 0 000-2.11zM20.493 21.305h2.26a1.055 1.055 0 100-2.11h-2.26a1.055 1.055 0 000 2.11zM29.531 19.195h-2.26a1.055 1.055 0 000 2.11h2.26a1.055 1.055 0 000-2.11zM9.197 12.417h-2.26a1.055 1.055 0 000 2.11h2.26a1.055 1.055 0 000-2.11zM15.975 12.417h-2.26a1.055 1.055 0 000 2.11h2.26a1.055 1.055 0 000-2.11zM20.493 14.526h2.26a1.055 1.055 0 100-2.109h-2.26a1.055 1.055 0 000 2.11zM29.531 12.417h-2.26a1.055 1.055 0 000 2.11h2.26a1.055 1.055 0 000-2.11zM24.628 24.023a1.055 1.055 0 00-1.491 0l-.95.949-.948-.949a1.055 1.055 0 00-1.492 1.491l.95.95-.95.948a1.054 1.054 0 101.492 1.491l.948-.948.95.948a1.05 1.05 0 001.49 0 1.054 1.054 0 000-1.491l-.948-.949.949-.949a1.054 1.054 0 000-1.491z"/></g><defs><clipPath id="aclip0_6_204"><path fill="#fff" transform="translate(.234)" d="M0 0h36v36H0z"/></clipPath></defs></svg>