<?xml version="1.0" encoding="utf-8"?><svg viewBox="0 0 37 37" xmlns="http://www.w3.org/2000/svg" xmlns:xlink="http://www.w3.org/1999/xlink"><style>:root>svg{display:none}:root>svg:target{display:block}</style><svg fill="none" viewBox="0 0 37 36" id="ic_calc" xmlns="http://www.w3.org/2000/svg"><g clip-path="url(#aclip0_6_204)" fill="#E27C1D"><path d="M32.92 4.51h-3.464V3.304a1.055 1.055 0 00-2.11 0v1.204h-4.668V3.305a1.055 1.055 0 10-2.11 0v1.204H15.9V3.305a1.055 1.055 0 10-2.11 0v1.204H9.121V3.305a1.055 1.055 0 10-2.11 0v1.204H3.549A3.313 3.313 0 00.234 7.823v22.594a3.313 3.313 0 003.314 3.314H32.92a3.312 3.312 0 003.314-3.314V7.823A3.313 3.313 0 0032.92 4.51zm1.204 25.907c0 .664-.537 1.205-1.204 1.205H3.548a1.204 1.204 0 01-1.205-1.205V7.823c0-.663.537-1.204 1.205-1.204h3.464v1.204a1.055 1.055 0 002.11 0V6.62h4.668v1.204a1.055 1.055 0 102.11 0V6.62h4.668v1.204a1.055 1.055 0 102.11 0V6.62h4.668v1.204a1.055 1.055 0 102.11 0V6.62h3.464c.663 0 1.204.537 1.204 1.204v22.594z"/><path d="M9.197 25.973h-2.26a1.055 1.055 0 000 2.11h2.26a1.055 1.055 0 000-2.11zM15.975 25.973h-2.26a1.055 1.055 0 100 2.11h2.26a1.055 1.055 0 000-2.11zM9.197 19.195h-2.26a1.055 1.055 0 000 2.11h2.26a1.055 1.055 0 000-2.11zM15.975 19.195h-2.26a1.055 1.055 0 100 2.11h2.26a1.055 1.055 0 000-2.11zM20.493 21.305h2.26a1.055 1.055 0 100-2.11h-2.26a1.055 1.055 0 000 2.11zM29.531 19.195h-2.26a1.055 1.055 0 000 2.11h2.26a1.055 1.055 0 000-2.11zM9.197 12.417h-2.26a1.055 1.055 0 000 2.11h2.26a1.055 1.055 0 000-2.11zM15.975 12.417h-2.26a1.055 1.055 0 000 2.11h2.26a1.055 1.055 0 000-2.11zM20.493 14.526h2.26a1.055 1.055 0 100-2.109h-2.26a1.055 1.055 0 000 2.11zM29.531 12.417h-2.26a1.055 1.055 0 000 2.11h2.26a1.055 1.055 0 000-2.11zM24.628 24.023a1.055 1.055 0 00-1.491 0l-.95.949-.948-.949a1.055 1.055 0 00-1.492 1.491l.95.95-.95.948a1.054 1.054 0 101.492 1.491l.948-.948.95.948a1.05 1.05 0 001.49 0 1.054 1.054 0 000-1.491l-.948-.949.949-.949a1.054 1.054 0 000-1.491z"/></g><defs><clipPath id="aclip0_6_204"><path fill="#fff" transform="translate(.234)" d="M0 0h36v36H0z"/></clipPath></defs></svg><svg fill="none" viewBox="0 0 17 17" id="ic_calendar" xmlns="http://www.w3.org/2000/svg"><path d="M2.725 17h11.863a2.256 2.256 0 002.254-2.254V3.513a2.256 2.256 0 00-2.254-2.254h-.894V.63a.632.632 0 00-.63-.629.631.631 0 00-.63.63v.63H4.88V.63A.631.631 0 004.25 0a.631.631 0 00-.63.63v.63h-.894A2.256 2.256 0 00.471 3.512v11.233A2.256 2.256 0 002.725 17zM1.731 3.513c0-.547.447-.994.994-.994h.894v.63c0 .345.284.629.63.629.346 0 .63-.284.63-.63v-.63h7.555v.63c0 .346.284.63.63.63.346 0 .63-.284.63-.63v-.63h.894c.547 0 .994.448.994.995v1.839H1.731V3.513zm0 3.098h13.851v8.135a.997.997 0 01-.994.995H2.725a.997.997 0 01-.994-.995V6.61z" fill="#EA5D26"/></svg><svg fill="none" viewBox="0 0 33 37" id="ic_cost" xmlns="http://www.w3.org/2000/svg"><path d="M29.54 13.403a3.248 3.248 0 00-.857-3.07L19.8 1.452A3.225 3.225 0 0017.505.5c-.867 0-1.682.338-2.295.95L3.378 13.283a3.771 3.771 0 00-3.026 3.692v15.76A3.77 3.77 0 004.117 36.5h24.234a3.77 3.77 0 003.765-3.765v-15.76a3.77 3.77 0 00-2.576-3.572zM16.7 2.943c.215-.215.5-.334.804-.334.304 0 .59.119.804.333l8.883 8.883c.375.375.431.948.172 1.384h-4.819a1.056 1.056 0 01.162-1.295 1.055 1.055 0 000-1.491L19.71 7.427a1.055 1.055 0 00-1.491 0c-.201.201-.468.312-.752.312s-.551-.11-.752-.312a1.055 1.055 0 00-1.492 0L9.443 13.21H6.435L16.7 2.942zm3.633 10.266h-7.908l3.671-3.672a3.19 3.19 0 002.741 0l1.759 1.76a3.188 3.188 0 00-.263 1.912zm8.017 21.182H4.117a1.658 1.658 0 01-1.656-1.656v-15.76c0-.914.743-1.657 1.656-1.657h24.234c.913 0 1.655.743 1.655 1.656v2.59h-3.212c-2.9 0-5.26 2.36-5.26 5.26s2.36 5.26 5.26 5.26h3.212v2.65c0 .914-.742 1.657-1.655 1.657zm1.655-12.718v6.302h-3.212a3.155 3.155 0 01-3.15-3.151 3.155 3.155 0 013.15-3.151h3.212z" fill="#E27C1D"/></svg><svg fill="none" viewBox="0 0 37 36" id="ic_people" xmlns="http://www.w3.org/2000/svg"><path d="M32.82 7.569a4.43 4.43 0 001.287-3.125A4.449 4.449 0 0029.664 0a4.449 4.449 0 00-4.444 4.444 4.43 4.43 0 001.284 3.121 6.773 6.773 0 00-2.489 2.302 6.766 6.766 0 00-2.49-2.302 4.428 4.428 0 001.285-3.121A4.449 4.449 0 0018.367 0a4.449 4.449 0 00-4.444 4.444c0 1.215.49 2.318 1.285 3.121a6.769 6.769 0 00-2.492 2.306 6.75 6.75 0 00-2.49-2.302 4.429 4.429 0 001.288-3.125A4.449 4.449 0 007.07 0a4.449 4.449 0 00-4.444 4.444 4.43 4.43 0 001.285 3.121C2.332 8.41.367 10.382.367 13.481v12.427c0 .582.472 1.054 1.054 1.054h11.604a7.811 7.811 0 00-2.491 5.723v2.26c0 .583.472 1.055 1.055 1.055h13.556c.582 0 1.054-.472 1.054-1.055v-2.259c0-3.625-2.405-5.648-2.486-5.723h11.599c.583 0 1.055-.473 1.055-1.055V13.481a6.709 6.709 0 00-3.548-5.912zm-3.156-5.46a2.337 2.337 0 012.334 2.335 2.337 2.337 0 01-2.334 2.334 2.337 2.337 0 01-2.335-2.334 2.337 2.337 0 012.335-2.335zm0 6.778a4.602 4.602 0 014.471 3.54h-8.944c.256-1.097 1.483-3.54 4.473-3.54zM18.367 2.11A2.337 2.337 0 0120.7 4.444a2.337 2.337 0 01-2.334 2.334 2.337 2.337 0 01-2.335-2.334 2.337 2.337 0 012.335-2.335zm0 6.778c2.988 0 4.216 2.442 4.473 3.54h-8.946c.256-1.097 1.483-3.54 4.474-3.54zM7.07 2.11a2.337 2.337 0 012.334 2.335A2.337 2.337 0 017.07 6.778a2.337 2.337 0 01-2.335-2.334A2.337 2.337 0 017.07 2.109zm0 6.778a4.602 4.602 0 014.471 3.54H2.597c.256-1.097 1.484-3.54 4.473-3.54zm11.297 15.966a3.468 3.468 0 01-3.464-3.464 3.468 3.468 0 013.464-3.464 3.468 3.468 0 013.464 3.464 3.468 3.468 0 01-3.464 3.464zm4.047 3.786a5.684 5.684 0 011.676 4.047v1.205H12.643v-1.206a5.729 5.729 0 015.724-5.722c1.529 0 2.966.595 4.047 1.676zm11.843-3.786H22.728a5.545 5.545 0 001.212-3.464 5.58 5.58 0 00-5.573-5.573 5.58 5.58 0 00-5.574 5.573c0 1.309.455 2.512 1.212 3.464H2.476V14.536h31.781v10.317z" fill="#E27C1D"/></svg><svg fill="none" viewBox="0 0 37 37" id="ic_voice" xmlns="http://www.w3.org/2000/svg"><g clip-path="url(#eclip0_6_217)" fill="#E27C1D"><path d="M24.684 13.499a.382.382 0 100 .763h1.998a.566.566 0 110 1.133h-1.766a.614.614 0 00-.614.613.614.614 0 01-.613.614h-.996a.614.614 0 01-.614-.614.614.614 0 00-.614-.613h-.143a.566.566 0 010-1.133h.095a.662.662 0 00.662-.661v-3.527a3 3 0 013-3h1.133c1.3 0 2.314.273 3.042.819.736.545 1.104 1.345 1.104 2.4 0 1.046-.368 1.842-1.104 2.387-.728.546-1.742.819-3.042.819h-1.528zm3.437-3.192c0-.464-.168-.819-.504-1.064-.328-.246-.8-.368-1.419-.368h-.45a1.446 1.446 0 100 2.891h.45c.619 0 1.091-.122 1.419-.368.336-.255.504-.618.504-1.091zM10.487 27.416a5.565 5.565 0 002.156-4.397 5.58 5.58 0 00-5.573-5.574 5.58 5.58 0 00-5.574 5.574c0 1.786.846 3.377 2.156 4.398-1.85 1.1-3.285 3.178-3.285 5.769v2.26c0 .582.472 1.054 1.054 1.054h11.297c.583 0 1.055-.472 1.055-1.055v-2.259c0-2.59-1.436-4.669-3.286-5.77zM3.606 23.02a3.468 3.468 0 013.464-3.464 3.468 3.468 0 013.464 3.464 3.468 3.468 0 01-3.464 3.464 3.468 3.468 0 01-3.464-3.464zm8.058 11.372H2.476v-1.205a4.591 4.591 0 014.594-4.594 4.591 4.591 0 014.593 4.594v1.205z"/><path d="M31.923.5H18.367a4.441 4.441 0 00-4.444 4.444v20.334c0 .863.99 1.367 1.687.844l4.238-3.178h12.075a4.441 4.441 0 004.444-4.444V4.944A4.441 4.441 0 0031.923.5zm2.334 18a2.333 2.333 0 01-2.334 2.334H19.496c-.228 0-.45.075-.633.211l-2.83 2.124V4.944a2.333 2.333 0 012.333-2.335h13.557a2.333 2.333 0 012.334 2.335V18.5z"/></g><defs><clipPath id="eclip0_6_217"><path fill="#fff" transform="translate(.367 .5)" d="M0 0h36v36H0z"/></clipPath></defs></svg></svg>